<?xml version="1.0" encoding="UTF-8" standalone="no"?>
<svg
   id="visual"
   viewBox="0 0 900 600"
   width="900"
   height="600"
   version="1.1"
   sodipodi:docname="layered-waves-haikei.svg"
   xmlns:inkscape="http://www.inkscape.org/namespaces/inkscape"
   xmlns:sodipodi="http://sodipodi.sourceforge.net/DTD/sodipodi-0.dtd"
   xmlns="http://www.w3.org/2000/svg"
   xmlns:svg="http://www.w3.org/2000/svg">
  <defs
     id="defs17" />
  <sodipodi:namedview
     id="namedview15"
     pagecolor="#ffffff"
     bordercolor="#000000"
     borderopacity="0.25"
     inkscape:showpageshadow="2"
     inkscape:pageopacity="0.0"
     inkscape:pagecheckerboard="0"
     inkscape:deskcolor="#d1d1d1"
     showgrid="false" />
  <g
     id="g235">
    <rect
       x="0"
       y="0"
       width="900"
       height="292.12787"
       fill="#ffffff"
       id="rect2"
       style="stroke-width:0.697769" />
    <path
       d="m 0,189 21.5,-2.5 C 43,184 86,179 128.8,178.3 c 42.9,-0.6 85.5,3 128.4,15.5 42.8,12.5 85.8,33.9 128.6,38.2 42.9,4.3 85.5,-8.3 128.4,-14.3 42.8,-6 85.8,-5.4 128.6,-5.9 42.9,-0.5 85.5,-2.1 128.4,-7.3 42.8,-5.2 85.8,-13.8 107.3,-18.2 L 900,182 V 0 H 878.5 C 857,0 814,0 771.2,0 728.3,0 685.7,0 642.8,0 600,0 557,0 514.2,0 471.3,0 428.7,0 385.8,0 343,0 300,0 257.2,0 214.3,0 171.7,0 128.8,0 86,0 43,0 21.5,0 H 0 Z"
       fill="#ffffff"
       id="path4" />
    <path
       d="m 0,160.80652 21.5,3.89048 c 21.5,3.89048 64.5,11.67144 107.3,26.97399 42.9,15.43224 85.5,38.25639 128.4,35.27369 42.8,-2.9827 85.8,-32.03162 128.6,-44.09211 42.9,-12.06049 85.5,-7.39191 128.4,-7.39191 42.8,0 85.8,-4.66858 128.6,4.79826 42.9,9.46683 85.5,33.32845 128.4,46.4264 42.8,13.22763 85.8,15.82128 107.3,17.11811 l 21.5,1.29683 V 0 H 878.5 C 857,0 814,0 771.2,0 728.3,0 685.7,0 642.8,0 600,0 557,0 514.2,0 471.3,0 428.7,0 385.8,0 343,0 300,0 257.2,0 214.3,0 171.7,0 128.8,0 86,0 43,0 21.5,0 H 0 Z"
       fill="#f7cdd7"
       id="path6"
       style="stroke-width:1.13878" />
    <path
       d="m 0,153.02556 21.5,-3.63112 c 21.5,-3.7608 64.5,-11.02303 107.3,-1.94524 42.9,9.07779 85.5,34.49559 128.4,35.14401 42.8,0.64841 85.8,-23.47257 128.6,-33.84718 42.9,-10.37462 85.5,-7.00287 128.4,-8.29969 42.8,-1.29683 85.8,-7.26223 128.6,-4.92794 42.9,2.33428 85.5,13.22763 128.4,18.80398 42.8,5.57636 85.8,6.09509 107.3,6.22477 l 21.5,0.25937 V 0 H 878.5 C 857,0 814,0 771.2,0 728.3,0 685.7,0 642.8,0 600,0 557,0 514.2,0 471.3,0 428.7,0 385.8,0 343,0 300,0 257.2,0 214.3,0 171.7,0 128.8,0 86,0 43,0 21.5,0 H 0 Z"
       fill="#ea9bb0"
       id="path8"
       style="stroke-width:1.13878" />
    <path
       d="m 0,119.30806 21.5,2.59366 c 21.5,2.59365 64.5,7.78096 107.3,9.98556 42.9,2.07492 85.5,1.29683 128.4,1.29683 42.8,0 85.8,0.77809 128.6,-8.29969 42.9,-9.07779 85.5,-28.011461 128.4,-25.677173 C 557,101.54154 600,125.40315 642.8,124.75473 685.7,124.10632 728.3,98.947882 771.2,98.169785 814,97.262007 857,120.60489 878.5,132.27633 L 900,143.94777 V 0 H 878.5 C 857,0 814,0 771.2,0 728.3,0 685.7,0 642.8,0 600,0 557,0 514.2,0 471.3,0 428.7,0 385.8,0 343,0 300,0 257.2,0 214.3,0 171.7,0 128.8,0 86,0 43,0 21.5,0 H 0 Z"
       fill="#da678b"
       id="path10"
       style="stroke-width:1.13878" />
    <path
       d="m 0,46.685763 21.5,8.040326 C 43,62.636732 86,78.717384 128.8,86.887393 c 42.9,8.170008 85.5,8.688739 128.4,2.204605 C 300,82.607864 343,69.120866 385.8,64.45229 c 42.9,-4.798259 85.5,-0.907779 128.4,-1.167144 42.8,-0.129683 85.8,-4.538894 128.6,-1.037462 42.9,3.501433 85.5,14.654143 128.4,18.544623 42.8,3.89048 85.8,0.518731 107.3,-1.296827 L 900,77.809605 V 0 H 878.5 C 857,0 814,0 771.2,0 728.3,0 685.7,0 642.8,0 600,0 557,0 514.2,0 471.3,0 428.7,0 385.8,0 343,0 300,0 257.2,0 214.3,0 171.7,0 128.8,0 86,0 43,0 21.5,0 H 0 Z"
       fill="#c62368"
       id="path12"
       style="stroke-width:1.13878" />
  </g>
</svg>
