<svg id="visual" viewBox="0 0 900 600" width="900" height="600" xmlns="http://www.w3.org/2000/svg" xmlns:xlink="http://www.w3.org/1999/xlink" version="1.1"><rect x="0" y="0" width="900" height="600" fill="#FFFFFF"></rect><path d="M0 189L21.5 186.5C43 184 86 179 128.8 178.3C171.7 177.7 214.3 181.3 257.2 193.8C300 206.3 343 227.7 385.8 232C428.7 236.3 471.3 223.7 514.2 217.7C557 211.7 600 212.3 642.8 211.8C685.7 211.3 728.3 209.7 771.2 204.5C814 199.3 857 190.7 878.5 186.3L900 182L900 0L878.5 0C857 0 814 0 771.2 0C728.3 0 685.7 0 642.8 0C600 0 557 0 514.2 0C471.3 0 428.7 0 385.8 0C343 0 300 0 257.2 0C214.3 0 171.7 0 128.8 0C86 0 43 0 21.5 0L0 0Z" fill="#ffffff"></path><path d="M0 124L21.5 127C43 130 86 136 128.8 147.8C171.7 159.7 214.3 177.3 257.2 175C300 172.7 343 150.3 385.8 141C428.7 131.7 471.3 135.3 514.2 135.3C557 135.3 600 131.7 642.8 139C685.7 146.3 728.3 164.7 771.2 174.8C814 185 857 187 878.5 188L900 189L900 0L878.5 0C857 0 814 0 771.2 0C728.3 0 685.7 0 642.8 0C600 0 557 0 514.2 0C471.3 0 428.7 0 385.8 0C343 0 300 0 257.2 0C214.3 0 171.7 0 128.8 0C86 0 43 0 21.5 0L0 0Z" fill="#f7cdd7"></path><path d="M0 118L21.5 115.2C43 112.3 86 106.7 128.8 113.7C171.7 120.7 214.3 140.3 257.2 140.8C300 141.3 343 122.7 385.8 114.7C428.7 106.7 471.3 109.3 514.2 108.3C557 107.3 600 102.7 642.8 104.5C685.7 106.3 728.3 114.7 771.2 119C814 123.3 857 123.7 878.5 123.8L900 124L900 0L878.5 0C857 0 814 0 771.2 0C728.3 0 685.7 0 642.8 0C600 0 557 0 514.2 0C471.3 0 428.7 0 385.8 0C343 0 300 0 257.2 0C214.3 0 171.7 0 128.8 0C86 0 43 0 21.5 0L0 0Z" fill="#ea9bb0"></path><path d="M0 92L21.5 94C43 96 86 100 128.8 101.7C171.7 103.3 214.3 102.7 257.2 102.7C300 102.7 343 103.3 385.8 96.3C428.7 89.3 471.3 74.7 514.2 76.5C557 78.3 600 96.7 642.8 96.2C685.7 95.7 728.3 76.3 771.2 75.7C814 75 857 93 878.5 102L900 111L900 0L878.5 0C857 0 814 0 771.2 0C728.3 0 685.7 0 642.8 0C600 0 557 0 514.2 0C471.3 0 428.7 0 385.8 0C343 0 300 0 257.2 0C214.3 0 171.7 0 128.8 0C86 0 43 0 21.5 0L0 0Z" fill="#da678b"></path><path d="M0 36L21.5 42.2C43 48.3 86 60.7 128.8 67C171.7 73.3 214.3 73.7 257.2 68.7C300 63.7 343 53.3 385.8 49.7C428.7 46 471.3 49 514.2 48.8C557 48.7 600 45.3 642.8 48C685.7 50.7 728.3 59.3 771.2 62.3C814 65.3 857 62.7 878.5 61.3L900 60L900 0L878.5 0C857 0 814 0 771.2 0C728.3 0 685.7 0 642.8 0C600 0 557 0 514.2 0C471.3 0 428.7 0 385.8 0C343 0 300 0 257.2 0C214.3 0 171.7 0 128.8 0C86 0 43 0 21.5 0L0 0Z" fill="#c62368"></path></svg>